<svg viewBox="0 0 20 19" xmlns="http://www.w3.org/2000/svg">
<path fill-rule="evenodd" clip-rule="evenodd" d="M8.87781 0.931711C8.63698 0.771039 8.38413 0.629186 8.12127 0.507667C7.40784 0.17785 6.63618 0.00498853 5.85505 0C4.24749 0.0629701 2.7294 0.783345 1.63279 2.00357C0.536189 3.2238 -0.0496849 4.84458 0.00330567 6.51143V6.6683C0.00330567 13.4387 9.21169 18.6761 9.60381 18.8963C9.72555 18.9643 9.86169 19 10 19C10.1383 19 10.2744 18.9643 10.3962 18.8963C10.7883 18.6761 19.9967 13.4387 19.9967 6.6683V6.51143C20.0497 4.84458 19.4638 3.2238 18.3672 2.00357C17.2706 0.783345 15.7525 0.0629701 14.1449 0C13.3638 0.00498815 12.5922 0.177849 11.8787 0.507666C11.6159 0.629186 11.363 0.771041 11.1222 0.931714C10.7094 1.20712 10.3319 1.53783 10 1.91619C9.66806 1.53783 9.29061 1.20712 8.87781 0.931711ZM14.1126 2.00054C13.6341 2.00985 13.16 2.11871 12.718 2.32306C12.2618 2.53394 11.8474 2.84308 11.5035 3.23515L10 4.9489L8.49655 3.23515C8.1526 2.84308 7.73818 2.53394 7.28202 2.32306C6.83997 2.11871 6.36589 2.00985 5.88736 2.00054C4.84813 2.05364 3.85308 2.52509 3.12035 3.34043C2.37464 4.17021 1.96538 5.28681 2.0023 6.44788L2.00331 6.47965V6.6683C2.00331 9.17657 3.75631 11.6734 6.01742 13.773C7.57736 15.2216 9.16832 16.2857 10 16.8035C10.8317 16.2857 12.4226 15.2216 13.9826 13.773C16.2437 11.6734 17.9967 9.17657 17.9967 6.6683V6.47965L17.9977 6.44788C18.0346 5.28681 17.6254 4.17021 16.8796 3.34043C16.1469 2.52509 15.1519 2.05364 14.1126 2.00054Z"/>
</svg>